<?xml version="1.0" encoding="UTF-8" standalone="no"?>
<svg width="23px" height="23px" viewBox="0 0 23 23" version="1.1" xmlns="http://www.w3.org/2000/svg" xmlns:xlink="http://www.w3.org/1999/xlink" xmlns:sketch="http://www.bohemiancoding.com/sketch/ns">
    <!-- Generator: Sketch 3.2.2 (9983) - http://www.bohemiancoding.com/sketch -->
    <title>Close Button</title>
    <desc>Created with Sketch.</desc>
    <defs>
        <path id="path-1" d="M0,0 L23,0 L23,23 L0,23 L0,0 L0,0 Z"></path>
    </defs>
    <g id="Welcome" stroke="none" stroke-width="1" fill="none" fill-rule="evenodd" sketch:type="MSPage">
        <g id="ABOUTME-PAGE" sketch:type="MSArtboardGroup" transform="translate(-163.000000, -56.000000)">
            <g id="Close-Button" sketch:type="MSLayerGroup" transform="translate(163.000000, 56.000000)">
                <mask id="mask-2" sketch:name="Shape" fill="white">
                    <use xlink:href="#path-1"></use>
                </mask>
                <g id="Shape"></g>
                <g id="Group" mask="url(#mask-2)" sketch:type="MSShapeGroup">
                    <path d="M0,0 L23,0 L23,23 L0,23 L0,0 Z" id="Shape" fill-opacity="0" fill="#000000"></path>
                    <path d="M0.79322837,11.9394755 L0.79322837,11.9394755 C0.79322837,6.02628842 5.58681362,1.23270409 11.4999998,1.23270409 L11.4999998,1.23270409 C14.3396124,1.23270409 17.0629212,2.3607358 19.0708307,4.36864461 C21.0787402,6.37655415 22.2067706,9.09986352 22.2067706,11.9394755 L22.2067706,11.9394755 C22.2067706,17.8526621 17.4131872,22.6462469 11.4999997,22.6462469 L11.4999997,22.6462469 C5.58681305,22.6462469 0.793228255,17.8526616 0.793228255,11.9394755 L0.79322837,11.9394755 Z" id="Shape" fill-opacity="0" fill="#000000"></path>
                    <path d="M3.92916912,4.36864392 L19.0708304,19.5103052 M19.0708304,4.36864392 L3.92916912,19.5103052" id="Shape" fill-opacity="0" fill="#000000"></path>
                    <path d="M0.793228336,8.80353474 L0.793228336,8.80353474 C0.793228336,4.62228007 4.18280497,1.23270409 8.36405899,1.23270409 L8.36405899,1.23270409 C10.3719684,1.23270409 12.2976385,2.03034296 13.7174448,3.45014889 C15.1372513,4.86995535 15.9348892,6.79562586 15.9348892,8.80353474 L15.9348892,8.80353474 C15.9348892,12.9847891 12.5453139,16.3743654 8.36405891,16.3743654 L8.36405891,16.3743654 C4.18280456,16.3743654 0.793228255,12.9847888 0.793228255,8.80353474 L0.793228336,8.80353474 Z" id="Shape" fill-opacity="0" fill="#000000"></path>
                    <path d="M3.92916912,4.36864392 L19.0708304,19.5103052 M19.0708304,4.36864392 L3.92916912,19.5103052" id="Shape" stroke="#5C6B80" stroke-width="2"></path>
                    <path d="M0.79322837,11.9394755 L0.79322837,11.9394755 C0.79322837,6.02628842 5.58681362,1.23270409 11.4999998,1.23270409 L11.4999998,1.23270409 C14.3396124,1.23270409 17.0629212,2.3607358 19.0708307,4.36864461 C21.0787402,6.37655415 22.2067706,9.09986352 22.2067706,11.9394755 L22.2067706,11.9394755 C22.2067706,17.8526621 17.4131872,22.6462469 11.4999997,22.6462469 L11.4999997,22.6462469 C5.58681305,22.6462469 0.793228255,17.8526616 0.793228255,11.9394755 L0.79322837,11.9394755 Z" id="Shape" stroke="#5C6B80" stroke-width="2"></path>
                </g>
            </g>
        </g>
    </g>
</svg>